<svg xmlns="http://www.w3.org/2000/svg" width="182" height="43.153" viewBox="0 0 182 43.153"><defs><style>.a{fill:#e1e6e9;}.b{fill:#cbcbcb;}.c{fill:#5fc090;}.d{fill:#37b79e;}.e{fill:#1e9791;}.f{fill:#010101;}.g{fill:#7f838c;}.h{fill:#767983;}.i{fill:#67b4e4;}.j{fill:#51a6dc;}.k{fill:#e55639;}.l{fill:#cf4729;}.m{fill:#f8bc33;}.n{fill:#f39f33;}.o{fill:#5d6067;}.p{fill:#54575d;}.q{fill:#7fc342;}.r{fill:#f29a36;}.s{fill:#e7812d;}.t{fill:#6db844;}.u{fill:#e6b078;}.v{fill:#b6e0f7;}.w{fill:#d29b6e;}.x{fill:#efc087;}.y{fill:#a1d1f0;}.z{fill:#5c5e6f;}.aa{fill:#525363;}.ab{fill:#795651;}.ac{fill:#6a4c4c;}.ad{fill:#5b4247;}.ae{fill:#d8deec;}.af{fill:#c8d0e2;}.ag{fill:#717588;}.ah{opacity:0.97;}.ai{fill:#afb9d2;}.aj{fill:#606161;}</style></defs><g transform="translate(-82.3 -52.5)"><g transform="translate(82.3 52.5)"><path class="a" d="M111.141,100.5l-1.841.966a1.032,1.032,0,0,1-.943,0l-1.841-.966C96.422,95.193,90.2,85.388,90.2,74.784V68.3a1,1,0,0,1,.89-1,7.335,7.335,0,0,0,6.694-6.017,1.016,1.016,0,0,1,1-.882h20.1a1.016,1.016,0,0,1,1,.882,7.343,7.343,0,0,0,6.694,6.017,1,1,0,0,1,.89,1v6.481C127.473,85.388,121.251,95.193,111.141,100.5Z" transform="translate(-89.599 -59.799)"/><path class="b" d="M349.528,67.4a7.335,7.335,0,0,1-6.694-6.017,1.016,1.016,0,0,0-1-.882h-1.369c.2,4.374,3.309,7.47,6.686,7.827a1,1,0,0,1,.89,1v6.481c0,10.6-6.222,20.4-16.324,25.719l-.213.114a1,1,0,0,0,.753-.076l1.841-.966c10.1-5.31,16.324-15.115,16.324-25.718V68.4A1,1,0,0,0,349.528,67.4Z" transform="translate(-312.544 -59.891)"/><path class="c" d="M144.093,131.91A29.04,29.04,0,0,1,133.071,121.9,25.118,25.118,0,0,1,129.1,108.45v-3.674a1.294,1.294,0,0,1,.822-1.209,11.406,11.406,0,0,0,6.123-5.629,1.3,1.3,0,0,1,1.171-.738h15.115a1.284,1.284,0,0,1,1.171.738,11.406,11.406,0,0,0,6.123,5.629,1.305,1.305,0,0,1,.822,1.209v3.674a25.072,25.072,0,0,1-3.971,13.449,29.04,29.04,0,0,1-11.022,10.011l-.076.038a1.307,1.307,0,0,1-1.209,0Z" transform="translate(-125.54 -93.8)"/><path class="d" d="M350.056,103.474a.527.527,0,0,1-.061-.023c-.038-.015-.068-.03-.107-.046-.061-.023-.122-.053-.183-.076-.038-.015-.068-.03-.107-.046a2.076,2.076,0,0,0-.19-.084.885.885,0,0,1-.084-.038c-.091-.046-.183-.084-.274-.129-.008,0-.015-.008-.023-.008-.084-.046-.167-.084-.243-.129a.837.837,0,0,1-.084-.046c-.061-.03-.122-.068-.175-.1-.03-.015-.068-.038-.1-.053-.053-.03-.106-.068-.167-.1-.03-.023-.061-.038-.091-.061-.061-.038-.114-.068-.167-.106-.03-.015-.053-.038-.084-.053-.076-.053-.152-.1-.228-.152-.008-.008-.015-.008-.015-.015-.084-.053-.16-.114-.243-.175a.657.657,0,0,0-.076-.053c-.053-.038-.106-.084-.16-.122a.807.807,0,0,1-.084-.068c-.053-.038-.1-.076-.152-.122a.807.807,0,0,1-.084-.068c-.053-.038-.1-.084-.152-.129-.023-.023-.053-.046-.076-.068l-.183-.16c-.015-.008-.023-.023-.038-.03-.068-.068-.145-.129-.213-.2l-.061-.061c-.053-.046-.1-.1-.145-.145l-.076-.076c-.046-.046-.084-.091-.129-.137-.023-.03-.053-.053-.076-.084-.046-.046-.084-.091-.129-.145-.023-.023-.046-.053-.068-.076-.046-.053-.1-.114-.145-.175a.334.334,0,0,1-.046-.053l-.183-.228c-.015-.023-.03-.038-.046-.061-.046-.061-.091-.114-.129-.175l-.061-.084a1.854,1.854,0,0,1-.107-.152c-.023-.03-.038-.061-.061-.091-.038-.053-.068-.106-.106-.16-.023-.03-.038-.061-.061-.091l-.114-.183a.307.307,0,0,1-.038-.068c-.053-.084-.1-.167-.145-.251-.008-.015-.023-.038-.03-.053-.038-.068-.076-.137-.114-.2l-.046-.091a1.71,1.71,0,0,1-.084-.167c-.015-.03-.03-.068-.046-.1s-.023-.053-.038-.076a1.3,1.3,0,0,0-1.172-.738H335.2v34.892a1.335,1.335,0,0,0,.609-.152l.076-.038a29.041,29.041,0,0,0,11.022-10.011,25.119,25.119,0,0,0,3.971-13.449v-3.674A1.312,1.312,0,0,0,350.056,103.474Z" transform="translate(-315.962 -93.707)"/><path class="e" d="M350.056,103.474a.525.525,0,0,1-.061-.023c-.038-.015-.068-.03-.106-.046-.061-.023-.122-.053-.183-.076-.038-.015-.068-.03-.107-.046a2.073,2.073,0,0,0-.19-.084.9.9,0,0,1-.084-.038c-.091-.046-.183-.084-.274-.129-.008,0-.015-.008-.023-.008-.084-.046-.167-.084-.243-.129a.834.834,0,0,1-.084-.046c-.061-.03-.122-.068-.175-.1-.03-.015-.068-.038-.1-.053-.053-.03-.107-.068-.167-.1-.03-.023-.061-.038-.091-.061-.061-.038-.114-.068-.167-.106-.03-.015-.053-.038-.084-.053-.076-.053-.152-.1-.228-.152-.008-.008-.015-.008-.015-.015-.084-.053-.16-.114-.243-.175a.656.656,0,0,0-.076-.053c-.053-.038-.106-.084-.16-.122a.809.809,0,0,1-.084-.068c-.053-.038-.1-.076-.152-.122a.81.81,0,0,1-.084-.068c-.053-.038-.1-.084-.152-.129-.023-.023-.053-.046-.076-.068l-.183-.16c-.015-.008-.023-.023-.038-.03-.068-.068-.145-.129-.213-.2l-.061-.061c-.053-.046-.1-.1-.145-.145l-.076-.076c-.046-.046-.084-.091-.129-.137-.023-.03-.053-.053-.076-.084-.046-.046-.084-.091-.129-.145-.023-.023-.046-.053-.068-.076-.046-.053-.1-.114-.145-.175a.331.331,0,0,1-.046-.053l-.183-.228c-.015-.023-.03-.038-.046-.061-.046-.061-.091-.114-.129-.175l-.061-.084a1.846,1.846,0,0,1-.107-.152c-.023-.03-.038-.061-.061-.091-.038-.053-.068-.106-.106-.16-.023-.03-.038-.061-.061-.091l-.114-.183a.307.307,0,0,1-.038-.068c-.053-.084-.1-.167-.145-.251-.008-.015-.023-.038-.03-.053-.038-.068-.076-.137-.114-.2l-.046-.091a1.718,1.718,0,0,1-.084-.167c-.015-.03-.03-.068-.046-.1s-.023-.053-.038-.076a1.3,1.3,0,0,0-1.171-.738h-2.1a11.113,11.113,0,0,1,.92,1.384c.015.023.023.053.038.076s.03.068.046.1c.03.061.061.114.084.167l.046.091c.038.068.076.137.114.2.008.015.023.038.03.053.046.084.1.167.145.251a.31.31,0,0,1,.038.068l.114.183a.638.638,0,0,0,.061.091c.038.053.068.106.107.16.023.03.038.061.061.091.038.053.076.106.107.152l.061.084.129.175c.015.023.03.038.046.061l.183.228a.328.328,0,0,1,.046.053c.046.061.1.114.145.175.023.023.046.053.068.076.046.046.084.1.129.145.023.03.053.053.076.084.046.046.084.091.129.137a.717.717,0,0,0,.076.076c.046.053.1.1.145.145l.061.061c.068.068.145.137.213.2.015.008.023.023.038.03l.183.16c.023.023.053.046.076.068l.152.129c.03.023.053.046.084.068.046.038.1.076.152.122a.812.812,0,0,1,.084.068c.053.038.106.084.16.122a.658.658,0,0,0,.076.053c.076.061.16.114.243.175.008.008.015.008.015.015.076.053.152.106.228.152.03.015.053.038.084.053.053.038.114.076.167.106.03.023.061.038.091.061.053.03.106.068.167.1.03.015.061.038.1.053.061.03.114.068.175.1a.823.823,0,0,1,.084.046c.084.046.167.084.243.129.008,0,.015.008.023.008.091.046.183.091.274.129a.9.9,0,0,1,.084.038,2.07,2.07,0,0,0,.19.084c.038.015.068.03.107.046.061.023.122.053.183.076.038.015.068.03.107.046a.519.519,0,0,1,.061.023,1.305,1.305,0,0,1,.822,1.209V109a25.072,25.072,0,0,1-3.971,13.449,30.88,30.88,0,0,1-9.356,9.508V132a1.335,1.335,0,0,0,.609-.152l.076-.038A29.04,29.04,0,0,0,346.907,121.8a25.119,25.119,0,0,0,3.971-13.449v-3.674A1.314,1.314,0,0,0,350.056,103.474Z" transform="translate(-315.962 -93.707)"/><path class="f" d="M136.42,125.051h0l.076.038a1.926,1.926,0,0,0,.89.221,1.95,1.95,0,0,0,.89-.221l.076-.038a29.538,29.538,0,0,0,11.25-10.224,25.651,25.651,0,0,0,4.062-13.768V97.385a1.9,1.9,0,0,0-1.2-1.772,10.74,10.74,0,0,1-5.8-5.332,1.915,1.915,0,0,0-1.719-1.08H129.825a1.915,1.915,0,0,0-1.719,1.08,10.768,10.768,0,0,1-5.8,5.332,1.891,1.891,0,0,0-1.2,1.772v3.674a25.717,25.717,0,0,0,4.062,13.768A29.672,29.672,0,0,0,136.42,125.051Zm-14.1-23.992V97.385a.7.7,0,0,1,.434-.647,11.933,11.933,0,0,0,6.451-5.933.694.694,0,0,1,.624-.388H144.94a.685.685,0,0,1,.624.388,11.933,11.933,0,0,0,6.451,5.933.686.686,0,0,1,.434.647v3.674a24.448,24.448,0,0,1-3.879,13.122,28.311,28.311,0,0,1-10.794,9.8l-.076.038a.694.694,0,0,1-.647,0l-.076-.038a28.371,28.371,0,0,1-10.794-9.8A24.544,24.544,0,0,1,122.317,101.059Z" transform="translate(-118.149 -86.408)"/><path class="f" d="M127.572,319.746a.6.6,0,0,0-.723.456,29.434,29.434,0,0,1-15.343,19.336l-1.841.966a.419.419,0,0,1-.38,0l-1.841-.966a29.422,29.422,0,0,1-15.358-19.374.6.6,0,0,0-1.179.266A30.636,30.636,0,0,0,106.882,340.6l1.841.966a1.645,1.645,0,0,0,1.506,0l1.841-.966a30.644,30.644,0,0,0,15.959-20.135A.6.6,0,0,0,127.572,319.746Z" transform="translate(-90.238 -299.367)"/><path class="f" d="M119.345,59.407a6.724,6.724,0,0,1-6.161-5.5,1.633,1.633,0,0,0-1.6-1.407h-20.1a1.621,1.621,0,0,0-1.6,1.407,6.709,6.709,0,0,1-6.161,5.5,1.6,1.6,0,0,0-1.43,1.605v6.481a27.013,27.013,0,0,0,.145,2.83.6.6,0,0,0,.6.54h.061a.6.6,0,0,0,.54-.662,26.787,26.787,0,0,1-.137-2.708V61.012a.4.4,0,0,1,.35-.4,7.9,7.9,0,0,0,7.226-6.534.41.41,0,0,1,.4-.365h20.1a.41.41,0,0,1,.4.365,7.916,7.916,0,0,0,7.226,6.534.4.4,0,0,1,.35.4v6.481a26.3,26.3,0,0,1-.137,2.678.6.6,0,1,0,1.2.122c.091-.928.145-1.871.145-2.8V61.012A1.6,1.6,0,0,0,119.345,59.407Z" transform="translate(-82.3 -52.5)"/></g><g transform="translate(87.393 57.703)"><g transform="translate(4.302 0)"><path class="g" d="M328.332,147.916v2.541a.616.616,0,1,1-1.232,0v-2.541a.616.616,0,0,1,1.232,0Z" transform="translate(-317.873 -145.292)"/><path class="h" d="M335.816,147.916v2.541a.614.614,0,0,1-.616.616V147.3A.618.618,0,0,1,335.816,147.916Z" transform="translate(-325.357 -145.292)"/><path class="i" d="M332.638,120.9h-4.922a.614.614,0,0,0-.616.616v2.457a.614.614,0,0,0,.616.616h2.457a3.074,3.074,0,0,0,3.073-3.073A.607.607,0,0,0,332.638,120.9Z" transform="translate(-317.873 -120.9)"/><path class="j" d="M340.73,121.516a3.074,3.074,0,0,1-3.073,3.073H335.2V120.9h4.922A.607.607,0,0,1,340.73,121.516Z" transform="translate(-325.357 -120.9)"/><path class="k" d="M231,175.16l-.122,1.217H212.422l-.122-1.217c3.453-.692,6.283-1.643,8.885-4.754a.6.6,0,0,1,.464-.205.587.587,0,0,1,.464.205A13.946,13.946,0,0,0,231,175.16Z" transform="translate(-211.806 -166.45)"/><g transform="translate(9.843 3.75)"><path class="l" d="M344.549,175.16l-.122,1.217H335.2V170.2a.587.587,0,0,1,.464.205A13.947,13.947,0,0,0,344.549,175.16Z" transform="translate(-335.2 -170.2)"/><path class="l" d="M393.025,251.4l-1.225,2.457,2.891,6.321,1.415.228V251.4Z" transform="translate(-387.495 -245.223)"/></g><path class="k" d="M225.073,251.4H222v9.006l1.407-.228,2.9-6.321Z" transform="translate(-220.768 -241.473)"/><path class="m" d="M225.073,251.4v2.457c0,1.963-1.841,5.005-3.073,6.549v1.232l2.381-.6,5.614-7.173v-2.457h-4.922Z" transform="translate(-220.768 -241.473)"/><path class="n" d="M348.122,249.157V246.7H343.2v2.457l4.389,8.025,3.606-.243v-1.232C349.962,254.17,348.122,251.12,348.122,249.157Z" transform="translate(-332.748 -237.131)"/><path class="o" d="M256.555,291.574l-.761.837H243.487l-.761-.837a.494.494,0,0,1,.221-.806c3.218-1,6.078-3.743,6.078-6.968h1.232c0,3.225,2.86,5.979,6.078,6.968A.5.5,0,0,1,256.555,291.574Z" transform="translate(-239.798 -271.409)"/><path class="p" d="M342.57,290.873l-1.316,1.438H335.1V283.7h.616C335.724,287.184,339.056,290.113,342.57,290.873Z" transform="translate(-325.264 -271.316)"/><path class="k" d="M239.222,261.631v.814a10.479,10.479,0,0,1-8.611-5.781A10.479,10.479,0,0,1,222,262.445v-.814c6.953-3.187,6.154-8.337,6.154-10.231h4.922v2.457C233.068,257.227,236.171,260.231,239.222,261.631Z" transform="translate(-220.768 -241.473)"/><path class="l" d="M343.811,261.631v.814a10.479,10.479,0,0,1-8.611-5.781V251.4h2.457v2.457C337.657,257.227,340.761,260.231,343.811,261.631Z" transform="translate(-325.357 -241.473)"/><path class="q" d="M225.479,381.316a.614.614,0,0,1-.616.616H206.416a.616.616,0,1,1,0-1.232H224.87A.612.612,0,0,1,225.479,381.316Z" transform="translate(-205.8 -360.938)"/><path class="r" d="M207.648,238.8h0a1.85,1.85,0,0,1-1.848-1.848v-1.232a.614.614,0,0,1,.616-.616h3.073v1.848A1.839,1.839,0,0,1,207.648,238.8Z" transform="translate(-205.8 -226.413)"/><path class="k" d="M256.148,238.8h0a1.85,1.85,0,0,1-1.848-1.848V235.1h3.689v1.848A1.839,1.839,0,0,1,256.148,238.8Z" transform="translate(-250.611 -226.413)"/><path class="l" d="M369.348,238.8h0a1.85,1.85,0,0,1-1.848-1.848V235.1h3.689v1.848A1.839,1.839,0,0,1,369.348,238.8Z" transform="translate(-355.2 -226.413)"/><path class="s" d="M417.848,238.8h0A1.85,1.85,0,0,1,416,236.948V235.1h3.073a.614.614,0,0,1,.616.616v1.232A1.839,1.839,0,0,1,417.848,238.8Z" transform="translate(-400.011 -226.413)"/><path class="r" d="M307.814,235.2v1.232a2.466,2.466,0,0,1-2.457,2.457,2.424,2.424,0,0,1-1.734-.723,2.394,2.394,0,0,1-.723-1.734V235.2Z" transform="translate(-295.514 -226.505)"/><path class="t" d="M345.036,381.316a.614.614,0,0,1-.616.616H335.2V380.7h9.227A.612.612,0,0,1,345.036,381.316Z" transform="translate(-325.357 -360.938)"/><path class="s" d="M337.657,235.2v1.232a2.466,2.466,0,0,1-2.457,2.457V235.2Z" transform="translate(-325.357 -226.505)"/></g><g transform="translate(0 15.016)"><path class="u" d="M323.067,432.256V431.1H320.1v1.156l1.483,1.316Z" transform="translate(-307.104 -422.52)"/><path class="v" d="M291.271,446.563l-2.039-.479a.28.28,0,0,1-.084-.038l-1.651.966L285.9,446a.33.33,0,0,1-.152.084l-2.039.479a.659.659,0,0,0-.51.639v1.62l4.29.829,4.29-.829V447.2A.659.659,0,0,0,291.271,446.563Z" transform="translate(-273.011 -436.286)"/><path class="w" d="M320.1,431.1v1.217a2.568,2.568,0,0,0,2.967-1.012V431.1Z" transform="translate(-307.104 -422.52)"/><path class="x" d="M311.4,381.2l.145,3.164a.99.99,0,0,0,.4.745l.685.51a.993.993,0,0,0,.593.2h.662a.977.977,0,0,0,.593-.2l.685-.51a.99.99,0,0,0,.4-.745l.145-3.164Z" transform="translate(-299.066 -376.415)"/><path class="u" d="M313.051,381.862c.662,0,1.651-.167,1.887-.662H311.4l.145,3.164a.99.99,0,0,0,.4.745l.685.51a.993.993,0,0,0,.593.2h.327a1.539,1.539,0,0,1-.989-1.483v-1.978A.527.527,0,0,1,313.051,381.862Z" transform="translate(-299.066 -376.415)"/><g transform="translate(10.189 10.513)"><path class="y" d="M376.861,457.458l1.073-.958a.659.659,0,0,1,.145.411V458.2a.325.325,0,0,1-.327.327H376.6v-.456A.785.785,0,0,1,376.861,457.458Z" transform="translate(-369.49 -456.5)"/><path class="y" d="M284.417,457.458l-1.073-.958a.659.659,0,0,0-.145.411V458.2a.325.325,0,0,0,.327.327h1.156v-.456A.811.811,0,0,0,284.417,457.458Z" transform="translate(-283.2 -456.5)"/></g><path class="z" d="M335.022,465.829H334.2l.106-2.229h.616Z" transform="translate(-320.131 -452.547)"/><path class="aa" d="M335.022,459.3H334.2v.2a.3.3,0,0,0,.3.3h.221a.3.3,0,0,0,.3-.3l.008-.2Z" transform="translate(-320.131 -448.574)"/><g transform="translate(12.502 9.328)"><path class="y" d="M314.072,440.976l1.506,1.354a5.406,5.406,0,0,0-.943.647.208.208,0,0,1-.327-.076l-.707-1.559.221-.335A.168.168,0,0,1,314.072,440.976Z" transform="translate(-313.6 -440.933)"/><path class="y" d="M341.106,440.976,339.6,442.33a5.409,5.409,0,0,1,.943.647.208.208,0,0,0,.327-.076l.707-1.559-.221-.335A.167.167,0,0,0,341.106,440.976Z" transform="translate(-337.622 -440.933)"/></g><path class="ab" d="M352.8,365.647l.152,1.1c.707.145.806,1.247.822,1.567a.287.287,0,0,0,.053.16l.266.418a1.6,1.6,0,0,1,.327-1.156C354.428,367.724,354.572,364.985,352.8,365.647Z" transform="translate(-337.316 -361.95)"/><path class="x" d="M363.843,403.416l-.183.745a.2.2,0,0,1-.19.152h0a.2.2,0,0,1-.2-.175l-.1-.761a.342.342,0,0,1,.342-.38h0A.333.333,0,0,1,363.843,403.416Z" transform="translate(-346.899 -396.555)"/><path class="ac" d="M305.37,357.912l.243.167a2.471,2.471,0,0,0-.9,2.214,2.045,2.045,0,0,1,.327,1.156l.327-.327s-.129-.951.494-1.316a2.632,2.632,0,0,1,1.6-.167c1.384,0,1.765-.517,1.7-1.156-.038-.327-.533-1.012-1.818-.989A5.246,5.246,0,0,0,305.37,357.912Z" transform="translate(-292.876 -354.511)"/><path class="ad" d="M305.272,366.607a1.809,1.809,0,0,1,.342-1.407,2.471,2.471,0,0,0-.9,2.214,2.045,2.045,0,0,1,.327,1.156l.327-.327s-.129-.951.494-1.316a2.632,2.632,0,0,1,1.6-.167,4.485,4.485,0,0,0,.593-.038C307,366.744,306.375,365.938,305.272,366.607Z" transform="translate(-292.876 -361.632)"/><path class="u" d="M307.079,403.416l.183.745a.2.2,0,0,0,.19.152h0a.2.2,0,0,0,.2-.175l.1-.761a.342.342,0,0,0-.342-.38h0A.337.337,0,0,0,307.079,403.416Z" transform="translate(-295.064 -396.555)"/><path class="y" d="M351.647,478.8h-1a.245.245,0,0,0-.243.243v.548h1.491v-.548A.24.24,0,0,0,351.647,478.8Z" transform="translate(-335.099 -466.591)"/><rect class="ae" width="3.415" height="1.346" transform="translate(6.951 13.635) rotate(-45)"/><path class="af" d="M261.2,466.652a8.024,8.024,0,0,0,.951.951l.852-.852-.951-.951Z" transform="translate(-252.684 -454.58)"/><path class="ae" d="M253.951,318.3A7.051,7.051,0,1,0,261,325.351,7.051,7.051,0,0,0,253.951,318.3Zm0,12.992a5.941,5.941,0,1,1,5.941-5.941A5.944,5.944,0,0,1,253.951,331.292Z" transform="translate(-239.472 -318.3)"/><path class="ag" d="M150.258,497.376l-.791-.791a.744.744,0,0,1,0-1.05l6.268-6.268a.744.744,0,0,1,1.05,0l.791.791a.744.744,0,0,1,0,1.05l-6.268,6.268A.73.73,0,0,1,150.258,497.376Z" transform="translate(-149.25 -476.061)"/><path class="z" d="M150.212,496.373l6.268-6.268a.744.744,0,0,1,1.05,0l.046.046h0l-.791-.783a.744.744,0,0,0-1.05,0l-6.268,6.268a.744.744,0,0,0,0,1.05l.745.745A.753.753,0,0,1,150.212,496.373Z" transform="translate(-149.25 -476.154)"/><path class="af" d="M230.341,491.664l.456-.456a.744.744,0,0,0,0-1.05l-.791-.791a.744.744,0,0,0-1.05,0l-.456.456Z" transform="translate(-222.472 -476.154)"/><g class="ah" transform="translate(6.028 12.996)"><path class="ai" d="M229.245,490.569l.456-.456a.744.744,0,0,1,1.05,0l.046.046h0l-.791-.791a.744.744,0,0,0-1.05,0l-.456.456Z" transform="translate(-228.5 -489.15)"/></g></g><g transform="translate(38.061 1.575)"><path class="aj" d="M652.574,163.374v9.988h12.293v3.012H652.574v10.878H649.6V160.4h15.647v2.974Z" transform="translate(-649.6 -158.97)"/><path class="aj" d="M892.53,248.625a12.2,12.2,0,0,0,.342,2.982,9.062,9.062,0,0,0,.913,2.343,4.193,4.193,0,0,0,1.46,1.521,4.013,4.013,0,0,0,2.145.54,4.51,4.51,0,0,0,2.936-.9,4.31,4.31,0,0,0,1.483-2.267l2.48.86a9.112,9.112,0,0,1-.746,1.727,5.758,5.758,0,0,1-1.278,1.559,6.372,6.372,0,0,1-1.993,1.141,8.27,8.27,0,0,1-2.891.449,6.606,6.606,0,0,1-5.72-2.723q-1.963-2.727-1.962-8.1a17.219,17.219,0,0,1,.6-4.906,9.47,9.47,0,0,1,1.628-3.271,6,6,0,0,1,2.4-1.818,7.7,7.7,0,0,1,2.936-.563,6.965,6.965,0,0,1,3.56.837q2.761,1.62,3.522,5.8a24.108,24.108,0,0,1,.365,4.328v.456H892.53Zm9.379-2.632q0-3.446-1.286-4.853A4.377,4.377,0,0,0,894.34,241c-1.141.981-1.75,2.64-1.81,4.99h9.379Z" transform="translate(-871.436 -229.928)"/><path class="aj" d="M1131.935,253.252a6.84,6.84,0,0,1-.456,2.579,5.09,5.09,0,0,1-1.331,1.909,5.939,5.939,0,0,1-2.153,1.179,9.522,9.522,0,0,1-2.913.411,11.7,11.7,0,0,1-2.647-.274,6.059,6.059,0,0,1-2.069-.882,4.972,4.972,0,0,1-1.483-1.613,7.538,7.538,0,0,1-.882-2.449l2.48-.593a3.779,3.779,0,0,0,1.483,2.427,5.446,5.446,0,0,0,3.126.768,8.626,8.626,0,0,0,1.666-.152,3.529,3.529,0,0,0,1.308-.525,2.582,2.582,0,0,0,.86-.989,3.437,3.437,0,0,0,.3-1.537,2.927,2.927,0,0,0-.365-1.537,3.064,3.064,0,0,0-1-1,6.7,6.7,0,0,0-1.552-.685l-2.023-.662c-.677-.213-1.346-.456-2.008-.723a6.656,6.656,0,0,1-1.8-1.057,4.877,4.877,0,0,1-1.81-4.07,5.468,5.468,0,0,1,1.651-4.3,7,7,0,0,1,4.815-1.476,7.437,7.437,0,0,1,4.45,1.2,5.651,5.651,0,0,1,2.084,3.849l-2.533.38a3.238,3.238,0,0,0-.517-1.346,3.116,3.116,0,0,0-.913-.875,3.856,3.856,0,0,0-1.194-.479,6.283,6.283,0,0,0-1.384-.145,4.533,4.533,0,0,0-2.807.707,2.561,2.561,0,0,0-.905,2.145,2.609,2.609,0,0,0,.335,1.384,2.825,2.825,0,0,0,.928.92,6.009,6.009,0,0,0,1.438.639l1.879.586,1.369.426a12.106,12.106,0,0,1,1.369.578,7.316,7.316,0,0,1,1.248.784,4.72,4.72,0,0,1,1.019,1.073,5.14,5.14,0,0,1,.692,1.468A7.553,7.553,0,0,1,1131.935,253.252Z" transform="translate(-1082.37 -230.667)"/><path class="aj" d="M1330.892,206.872a11.109,11.109,0,0,1-1.316.335,8.419,8.419,0,0,1-1.544.122c-2.252,0-3.37-1.559-3.37-4.671V188.9H1322.7V186.41h2.077l.822-4.61h1.886v4.61h3.126V188.9h-3.126V201.92a3.949,3.949,0,0,0,.4,2.084,1.515,1.515,0,0,0,1.369.6,3.928,3.928,0,0,0,.791-.076c.259-.053.54-.114.844-.19Z" transform="translate(-1271.499 -178.742)"/><path class="aj" d="M1461.5,144.879V141.6h2.822v3.279Zm0,25V149.268h2.822v20.614Z" transform="translate(-1399.74 -141.6)"/><path class="aj" d="M1564.323,175.038a8.814,8.814,0,0,1-.54,3.126,6.5,6.5,0,0,1-1.666,2.465,7.9,7.9,0,0,1-2.83,1.62,12.565,12.565,0,0,1-4.047.578,10.382,10.382,0,0,1-6.412-1.75,8.013,8.013,0,0,1-2.929-5.066l2.9-.707a6.923,6.923,0,0,0,.669,1.909,4.685,4.685,0,0,0,1.232,1.476,5.665,5.665,0,0,0,1.917.958,9.57,9.57,0,0,0,2.723.342,10.275,10.275,0,0,0,2.449-.274,5.48,5.48,0,0,0,1.909-.844,3.97,3.97,0,0,0,1.24-1.476,4.843,4.843,0,0,0,.449-2.16,4.107,4.107,0,0,0-.494-2.13,3.94,3.94,0,0,0-1.385-1.354,9.064,9.064,0,0,0-2.13-.9l-2.723-.806c-.6-.175-1.209-.358-1.841-.548a12.363,12.363,0,0,1-1.8-.692,9.869,9.869,0,0,1-1.6-.958,5.781,5.781,0,0,1-1.293-1.324,6.4,6.4,0,0,1-.867-1.788,7.858,7.858,0,0,1-.312-2.35,7.672,7.672,0,0,1,.639-3.271,5.973,5.973,0,0,1,1.765-2.236,7.244,7.244,0,0,1,2.655-1.278,13.059,13.059,0,0,1,3.309-.4,13.757,13.757,0,0,1,3.5.388,6.834,6.834,0,0,1,2.457,1.171,5.717,5.717,0,0,1,1.6,1.932,11.148,11.148,0,0,1,.958,2.678l-2.936.631a6.245,6.245,0,0,0-.632-1.734,4.047,4.047,0,0,0-1.1-1.278,4.882,4.882,0,0,0-1.635-.784,9.859,9.859,0,0,0-4.823.068,4.454,4.454,0,0,0-1.666.905,3.275,3.275,0,0,0-.905,1.346,4.981,4.981,0,0,0-.274,1.673,3.649,3.649,0,0,0,.494,1.978,4.066,4.066,0,0,0,1.331,1.286,8.092,8.092,0,0,0,1.955.844l2.343.692,2.031.6a14.16,14.16,0,0,1,1.932.692,10.812,10.812,0,0,1,1.727.958,5.873,5.873,0,0,1,1.4,1.346,5.957,5.957,0,0,1,.936,1.879A9.538,9.538,0,0,1,1564.323,175.038Z" transform="translate(-1477.72 -154.165)"/><path class="aj" d="M1848.792,248.358a28.335,28.335,0,0,1-.3,4.328,11.02,11.02,0,0,1-1.042,3.408,5.909,5.909,0,0,1-1.925,2.236,5.1,5.1,0,0,1-2.944.806,5.946,5.946,0,0,1-3.172-.837,5.2,5.2,0,0,1-2.069-2.746h-.1a1.408,1.408,0,0,1,.03.342c.008.205.015.456.023.761s.015.647.015,1.019.008.745.008,1.118v8.063h-2.822v-24.5c0-.494,0-.974-.008-1.43s-.015-.875-.015-1.248-.015-.692-.03-.958-.023-.456-.038-.571h2.723a2.685,2.685,0,0,1,.038.4l.061.822c.015.327.023.677.038,1.05s.023.715.023,1.05h.053a7.318,7.318,0,0,1,.882-1.689,4.7,4.7,0,0,1,1.156-1.141,4.354,4.354,0,0,1,1.43-.647,6.978,6.978,0,0,1,1.772-.2,5.328,5.328,0,0,1,2.944.761,5.619,5.619,0,0,1,1.924,2.145,10.663,10.663,0,0,1,1.042,3.332A27.69,27.69,0,0,1,1848.792,248.358Zm-2.951.076a28.08,28.08,0,0,0-.183-3.393,8.738,8.738,0,0,0-.646-2.518,3.691,3.691,0,0,0-1.232-1.559,3.265,3.265,0,0,0-1.925-.532,4.724,4.724,0,0,0-1.765.327,3.129,3.129,0,0,0-1.445,1.24,7.385,7.385,0,0,0-.974,2.525,20.138,20.138,0,0,0-.35,4.184,19.668,19.668,0,0,0,.3,3.7,7.464,7.464,0,0,0,.867,2.449,3.448,3.448,0,0,0,1.407,1.346,4.369,4.369,0,0,0,1.947.411,3.208,3.208,0,0,0,1.947-.555,3.865,3.865,0,0,0,1.232-1.6,8.943,8.943,0,0,0,.647-2.563A31.314,31.314,0,0,0,1845.841,248.434Z" transform="translate(-1744.275 -230.482)"/><path class="aj" d="M2061.93,248.625a12.212,12.212,0,0,0,.342,2.982,9.06,9.06,0,0,0,.913,2.343,4.191,4.191,0,0,0,1.461,1.521,4.012,4.012,0,0,0,2.145.54,4.51,4.51,0,0,0,2.936-.9,4.309,4.309,0,0,0,1.483-2.267l2.48.86a9.129,9.129,0,0,1-.746,1.727,5.752,5.752,0,0,1-1.278,1.559,6.37,6.37,0,0,1-1.993,1.141,8.269,8.269,0,0,1-2.891.449,6.607,6.607,0,0,1-5.72-2.723q-1.963-2.727-1.962-8.1a17.213,17.213,0,0,1,.6-4.906,9.475,9.475,0,0,1,1.628-3.271,6.006,6.006,0,0,1,2.4-1.818,7.7,7.7,0,0,1,2.937-.563,6.965,6.965,0,0,1,3.56.837q2.762,1.62,3.522,5.8a24.108,24.108,0,0,1,.365,4.328v.456H2061.93Zm9.372-2.632q0-3.446-1.286-4.853a4.377,4.377,0,0,0-6.283-.145c-1.141.981-1.75,2.64-1.81,4.99h9.379Z" transform="translate(-1951.883 -229.928)"/><path class="aj" d="M2296.243,247.8a22.677,22.677,0,0,0,.213,3.256,8.972,8.972,0,0,0,.707,2.563,4.11,4.11,0,0,0,1.316,1.666,3.719,3.719,0,0,0,4.541-.4,4.913,4.913,0,0,0,1.232-3.05l2.86.228a9.017,9.017,0,0,1-.609,2.457,7,7,0,0,1-1.278,2.077,5.858,5.858,0,0,1-1.962,1.438,6.2,6.2,0,0,1-2.67.54,6.585,6.585,0,0,1-3.385-.822,6.386,6.386,0,0,1-2.267-2.259,10.487,10.487,0,0,1-1.255-3.393,21.745,21.745,0,0,1-.388-4.237,20.923,20.923,0,0,1,.289-3.666,13.329,13.329,0,0,1,.791-2.784,7.575,7.575,0,0,1,1.194-2,5.93,5.93,0,0,1,1.5-1.293,6.228,6.228,0,0,1,1.7-.707,7.6,7.6,0,0,1,1.8-.221,6.321,6.321,0,0,1,2.533.479,5.918,5.918,0,0,1,1.917,1.308,6.624,6.624,0,0,1,1.308,1.955,10.356,10.356,0,0,1,.708,2.419l-2.9.266a4.887,4.887,0,0,0-1.1-2.723,3.233,3.233,0,0,0-2.533-1.012,3.814,3.814,0,0,0-2.008.487,3.541,3.541,0,0,0-1.309,1.468,8.2,8.2,0,0,0-.707,2.465A21.512,21.512,0,0,0,2296.243,247.8Z" transform="translate(-2168.267 -229.928)"/></g></g></g></svg>